<mxfile host="app.diagrams.net" modified="2023-05-25T13:51:42.075Z" agent="Mozilla/5.0 (Windows NT 10.0; Win64; x64) AppleWebKit/537.36 (KHTML, like Gecko) Chrome/113.0.0.0 Safari/537.36" etag="h5NjwrKOVFAhc9Adkzj8" version="21.3.4" type="github">
  <diagram name="Página-1" id="4vqtyZeHjljcxOjgkei8">
    <mxGraphModel dx="1050" dy="573" grid="1" gridSize="10" guides="1" tooltips="1" connect="1" arrows="1" fold="1" page="1" pageScale="1" pageWidth="827" pageHeight="1169" math="0" shadow="0">
      <root>
        <mxCell id="0" />
        <mxCell id="1" parent="0" />
        <mxCell id="i9qxXffxVEjZmpE-fZR9-13" style="edgeStyle=orthogonalEdgeStyle;rounded=0;orthogonalLoop=1;jettySize=auto;html=1;exitX=0.5;exitY=1;exitDx=0;exitDy=0;entryX=0.5;entryY=0;entryDx=0;entryDy=0;" edge="1" parent="1" source="i9qxXffxVEjZmpE-fZR9-1" target="i9qxXffxVEjZmpE-fZR9-4">
          <mxGeometry relative="1" as="geometry" />
        </mxCell>
        <mxCell id="i9qxXffxVEjZmpE-fZR9-1" value="START" style="rounded=1;whiteSpace=wrap;html=1;" vertex="1" parent="1">
          <mxGeometry x="192" y="10" width="120" height="60" as="geometry" />
        </mxCell>
        <mxCell id="i9qxXffxVEjZmpE-fZR9-14" style="edgeStyle=orthogonalEdgeStyle;rounded=0;orthogonalLoop=1;jettySize=auto;html=1;exitX=0;exitY=0.5;exitDx=0;exitDy=0;" edge="1" parent="1" source="i9qxXffxVEjZmpE-fZR9-4" target="i9qxXffxVEjZmpE-fZR9-6">
          <mxGeometry relative="1" as="geometry" />
        </mxCell>
        <mxCell id="i9qxXffxVEjZmpE-fZR9-16" style="edgeStyle=orthogonalEdgeStyle;rounded=0;orthogonalLoop=1;jettySize=auto;html=1;exitX=1;exitY=0.5;exitDx=0;exitDy=0;" edge="1" parent="1" source="i9qxXffxVEjZmpE-fZR9-4">
          <mxGeometry relative="1" as="geometry">
            <mxPoint x="436" y="230" as="targetPoint" />
          </mxGeometry>
        </mxCell>
        <mxCell id="i9qxXffxVEjZmpE-fZR9-4" value="Número é divisível por 4?" style="rhombus;whiteSpace=wrap;html=1;" vertex="1" parent="1">
          <mxGeometry x="164" y="120" width="176" height="80" as="geometry" />
        </mxCell>
        <mxCell id="i9qxXffxVEjZmpE-fZR9-6" value="Não é bissexto" style="rounded=1;whiteSpace=wrap;html=1;fillColor=#f8cecc;strokeColor=#b85450;" vertex="1" parent="1">
          <mxGeometry x="44" y="240" width="120" height="60" as="geometry" />
        </mxCell>
        <mxCell id="i9qxXffxVEjZmpE-fZR9-21" style="edgeStyle=orthogonalEdgeStyle;rounded=0;orthogonalLoop=1;jettySize=auto;html=1;exitX=0;exitY=0.5;exitDx=0;exitDy=0;entryX=0.363;entryY=0.05;entryDx=0;entryDy=0;entryPerimeter=0;" edge="1" parent="1" source="i9qxXffxVEjZmpE-fZR9-10" target="i9qxXffxVEjZmpE-fZR9-11">
          <mxGeometry relative="1" as="geometry" />
        </mxCell>
        <mxCell id="i9qxXffxVEjZmpE-fZR9-24" style="edgeStyle=orthogonalEdgeStyle;rounded=0;orthogonalLoop=1;jettySize=auto;html=1;exitX=1;exitY=0.5;exitDx=0;exitDy=0;entryX=0.5;entryY=0;entryDx=0;entryDy=0;" edge="1" parent="1" source="i9qxXffxVEjZmpE-fZR9-10" target="i9qxXffxVEjZmpE-fZR9-22">
          <mxGeometry relative="1" as="geometry" />
        </mxCell>
        <mxCell id="i9qxXffxVEjZmpE-fZR9-10" value="Número é divisível &lt;br&gt;por 100?" style="rhombus;whiteSpace=wrap;html=1;" vertex="1" parent="1">
          <mxGeometry x="348" y="230" width="176" height="80" as="geometry" />
        </mxCell>
        <mxCell id="i9qxXffxVEjZmpE-fZR9-11" value="É bissexto" style="rounded=1;whiteSpace=wrap;html=1;fillColor=#d5e8d4;strokeColor=#82b366;" vertex="1" parent="1">
          <mxGeometry x="258" y="330" width="120" height="60" as="geometry" />
        </mxCell>
        <mxCell id="i9qxXffxVEjZmpE-fZR9-15" value="Não" style="text;html=1;align=center;verticalAlign=middle;resizable=0;points=[];autosize=1;strokeColor=none;fillColor=none;" vertex="1" parent="1">
          <mxGeometry x="108" y="130" width="50" height="30" as="geometry" />
        </mxCell>
        <mxCell id="i9qxXffxVEjZmpE-fZR9-17" value="Sim" style="text;html=1;align=center;verticalAlign=middle;resizable=0;points=[];autosize=1;strokeColor=none;fillColor=none;" vertex="1" parent="1">
          <mxGeometry x="378" y="130" width="40" height="30" as="geometry" />
        </mxCell>
        <mxCell id="i9qxXffxVEjZmpE-fZR9-20" value="Não" style="text;html=1;align=center;verticalAlign=middle;resizable=0;points=[];autosize=1;strokeColor=none;fillColor=none;" vertex="1" parent="1">
          <mxGeometry x="304" y="240" width="50" height="30" as="geometry" />
        </mxCell>
        <mxCell id="i9qxXffxVEjZmpE-fZR9-26" style="edgeStyle=orthogonalEdgeStyle;rounded=0;orthogonalLoop=1;jettySize=auto;html=1;exitX=0;exitY=0.5;exitDx=0;exitDy=0;entryX=0.417;entryY=0.03;entryDx=0;entryDy=0;entryPerimeter=0;" edge="1" parent="1" source="i9qxXffxVEjZmpE-fZR9-22" target="i9qxXffxVEjZmpE-fZR9-25">
          <mxGeometry relative="1" as="geometry" />
        </mxCell>
        <mxCell id="i9qxXffxVEjZmpE-fZR9-29" style="edgeStyle=orthogonalEdgeStyle;rounded=0;orthogonalLoop=1;jettySize=auto;html=1;exitX=1;exitY=0.5;exitDx=0;exitDy=0;entryX=0.813;entryY=-0.05;entryDx=0;entryDy=0;entryPerimeter=0;" edge="1" parent="1" source="i9qxXffxVEjZmpE-fZR9-22" target="i9qxXffxVEjZmpE-fZR9-28">
          <mxGeometry relative="1" as="geometry" />
        </mxCell>
        <mxCell id="i9qxXffxVEjZmpE-fZR9-22" value="Número é divisível &lt;br&gt;por 400?" style="rhombus;whiteSpace=wrap;html=1;" vertex="1" parent="1">
          <mxGeometry x="524" y="310" width="176" height="80" as="geometry" />
        </mxCell>
        <mxCell id="i9qxXffxVEjZmpE-fZR9-23" value="Sim" style="text;html=1;align=center;verticalAlign=middle;resizable=0;points=[];autosize=1;strokeColor=none;fillColor=none;" vertex="1" parent="1">
          <mxGeometry x="554" y="240" width="40" height="30" as="geometry" />
        </mxCell>
        <mxCell id="i9qxXffxVEjZmpE-fZR9-25" value="Não é bissexto" style="rounded=1;whiteSpace=wrap;html=1;fillColor=#f8cecc;strokeColor=#b85450;" vertex="1" parent="1">
          <mxGeometry x="434" y="420" width="120" height="60" as="geometry" />
        </mxCell>
        <mxCell id="i9qxXffxVEjZmpE-fZR9-27" value="Não" style="text;html=1;align=center;verticalAlign=middle;resizable=0;points=[];autosize=1;strokeColor=none;fillColor=none;" vertex="1" parent="1">
          <mxGeometry x="484" y="320" width="50" height="30" as="geometry" />
        </mxCell>
        <mxCell id="i9qxXffxVEjZmpE-fZR9-28" value="É bissexto" style="rounded=1;whiteSpace=wrap;html=1;fillColor=#d5e8d4;strokeColor=#82b366;" vertex="1" parent="1">
          <mxGeometry x="664" y="420" width="120" height="60" as="geometry" />
        </mxCell>
        <mxCell id="i9qxXffxVEjZmpE-fZR9-31" value="Sim" style="text;html=1;align=center;verticalAlign=middle;resizable=0;points=[];autosize=1;strokeColor=none;fillColor=none;" vertex="1" parent="1">
          <mxGeometry x="714" y="320" width="40" height="30" as="geometry" />
        </mxCell>
      </root>
    </mxGraphModel>
  </diagram>
</mxfile>
